<svg 
 xmlns="http://www.w3.org/2000/svg"
 xmlns:xlink="http://www.w3.org/1999/xlink"
 width="77px" height="89px">
<defs>
<filter id="Filter_0">
    <feFlood flood-color="rgb(255, 255, 255)" flood-opacity="1" result="floodOut" />
    <feComposite operator="atop" in="floodOut" in2="SourceGraphic" result="compOut" />
    <feBlend mode="normal" in="compOut" in2="SourceGraphic" />
</filter>
<filter id="Filter_1">
    <feFlood flood-color="rgb(255, 255, 255)" flood-opacity="1" result="floodOut" />
    <feComposite operator="atop" in="floodOut" in2="SourceGraphic" result="compOut" />
    <feBlend mode="normal" in="compOut" in2="SourceGraphic" />
</filter>
<filter id="Filter_2">
    <feFlood flood-color="rgb(255, 255, 255)" flood-opacity="1" result="floodOut" />
    <feComposite operator="atop" in="floodOut" in2="SourceGraphic" result="compOut" />
    <feBlend mode="normal" in="compOut" in2="SourceGraphic" />
</filter>
<filter id="Filter_3">
    <feFlood flood-color="rgb(255, 255, 255)" flood-opacity="1" result="floodOut" />
    <feComposite operator="atop" in="floodOut" in2="SourceGraphic" result="compOut" />
    <feBlend mode="normal" in="compOut" in2="SourceGraphic" />
</filter>

</defs>
<g filter="url(#Filter_0)">
<path fill-rule="evenodd"  fill="rgb(84, 191, 253)"
 d="M73.999,88.999 L2.999,88.999 C1.343,88.999 0.0,87.656 0.0,85.999 L0.0,2.999 C0.0,1.343 1.343,0.0 2.999,0.0 C2.999,0.0 36.326,0.0 58.249,0.0 C58.83,0.83 76.999,19.416 76.999,19.499 C76.999,44.937 76.999,85.999 76.999,85.999 C76.999,87.656 75.656,88.999 73.999,88.999 ZM66.275,73.781 L52.985,60.643 C56.117,56.588 57.999,51.519 57.999,45.999 C57.999,32.745 47.254,21.999 33.999,21.999 C20.745,21.999 9.999,32.745 9.999,45.999 C9.999,59.254 20.745,69.999 33.999,69.999 C38.473,69.999 42.646,68.753 46.231,66.622 L59.947,80.181 C61.714,81.929 64.564,81.912 66.311,80.145 C68.58,78.378 68.42,75.528 66.275,73.781 ZM33.999,63.249 C24.473,63.249 16.749,55.526 16.749,45.999 C16.749,36.473 24.473,28.749 33.999,28.749 C43.526,28.749 51.249,36.473 51.249,45.999 C51.249,55.526 43.526,63.249 33.999,63.249 Z"/>
</g>
<g filter="url(#Filter_1)">
<path fill-rule="evenodd"  fill="rgb(84, 191, 253)"
 d="M73.999,88.999 L2.999,88.999 C1.343,88.999 0.0,87.656 0.0,85.999 L0.0,2.999 C0.0,1.343 1.343,0.0 2.999,0.0 C2.999,0.0 36.326,0.0 58.249,0.0 C58.83,0.83 76.999,19.416 76.999,19.499 C76.999,44.937 76.999,85.999 76.999,85.999 C76.999,87.656 75.656,88.999 73.999,88.999 ZM66.275,73.781 L52.985,60.643 C56.117,56.588 57.999,51.519 57.999,45.999 C57.999,32.745 47.254,21.999 33.999,21.999 C20.745,21.999 9.999,32.745 9.999,45.999 C9.999,59.254 20.745,69.999 33.999,69.999 C38.473,69.999 42.646,68.753 46.231,66.622 L59.947,80.181 C61.714,81.929 64.564,81.912 66.311,80.145 C68.58,78.378 68.42,75.528 66.275,73.781 ZM33.999,63.249 C24.473,63.249 16.749,55.526 16.749,45.999 C16.749,36.473 24.473,28.749 33.999,28.749 C43.526,28.749 51.249,36.473 51.249,45.999 C51.249,55.526 43.526,63.249 33.999,63.249 Z"/>
</g>
<g filter="url(#Filter_2)">
<path fill-rule="evenodd"  fill="rgb(84, 191, 253)"
 d="M73.999,88.999 L2.999,88.999 C1.343,88.999 0.0,87.656 0.0,85.999 L0.0,2.999 C0.0,1.343 1.343,0.0 2.999,0.0 C2.999,0.0 36.326,0.0 58.249,0.0 C58.83,0.83 76.999,19.416 76.999,19.499 C76.999,44.937 76.999,85.999 76.999,85.999 C76.999,87.656 75.656,88.999 73.999,88.999 ZM66.275,73.781 L52.985,60.643 C56.117,56.588 57.999,51.519 57.999,45.999 C57.999,32.745 47.254,21.999 33.999,21.999 C20.745,21.999 9.999,32.745 9.999,45.999 C9.999,59.254 20.745,69.999 33.999,69.999 C38.473,69.999 42.646,68.753 46.231,66.622 L59.947,80.181 C61.714,81.929 64.564,81.912 66.311,80.145 C68.58,78.378 68.42,75.528 66.275,73.781 ZM33.999,63.249 C24.473,63.249 16.749,55.526 16.749,45.999 C16.749,36.473 24.473,28.749 33.999,28.749 C43.526,28.749 51.249,36.473 51.249,45.999 C51.249,55.526 43.526,63.249 33.999,63.249 Z"/>
</g>
<g filter="url(#Filter_3)">
<path fill-rule="evenodd"  fill="rgb(84, 191, 253)"
 d="M73.999,88.999 L2.999,88.999 C1.343,88.999 0.0,87.656 0.0,85.999 L0.0,2.999 C0.0,1.343 1.343,0.0 2.999,0.0 C2.999,0.0 36.326,0.0 58.249,0.0 C58.83,0.83 76.999,19.416 76.999,19.499 C76.999,44.937 76.999,85.999 76.999,85.999 C76.999,87.656 75.656,88.999 73.999,88.999 ZM66.275,73.781 L52.985,60.643 C56.117,56.588 57.999,51.519 57.999,45.999 C57.999,32.745 47.254,21.999 33.999,21.999 C20.745,21.999 9.999,32.745 9.999,45.999 C9.999,59.254 20.745,69.999 33.999,69.999 C38.473,69.999 42.646,68.753 46.231,66.622 L59.947,80.181 C61.714,81.929 64.564,81.912 66.311,80.145 C68.58,78.378 68.42,75.528 66.275,73.781 ZM33.999,63.249 C24.473,63.249 16.749,55.526 16.749,45.999 C16.749,36.473 24.473,28.749 33.999,28.749 C43.526,28.749 51.249,36.473 51.249,45.999 C51.249,55.526 43.526,63.249 33.999,63.249 Z"/>
</g>
</svg>